<?xml version="1.0" encoding="utf-8"?>
<!DOCTYPE svg PUBLIC "-//W3C//DTD SVG 1.0//EN" "http://www.w3.org/TR/2001/REC-SVG-20010904/DTD/svg10.dtd">
<svg version="1.0" xmlns="http://www.w3.org/2000/svg" width="153px" height="160px" viewBox="0 0 153 160" preserveAspectRatio="xMidYMid meet">
 <g fill="#ffffff">
  <path d="M59.9 149.5 c-12.7 -3.1 -25.8 -11 -34.8 -21.2 -6.8 -7.6 -13.6 -21 -16.2 -31.9 -3 -12.5 -2.4 -29.4 1.5 -40.9 8.5 -25.1 28.7 -43.1 54.6 -48.6 7.1 -1.5 22.7 -0.6 30.5 1.9 23.5 7.4 41.1 26.6 47.5 51.7 2.5 9.8 2.8 25.2 0.6 34.6 -6.3 27.1 -25.3 47.5 -50.2 53.9 -9.1 2.4 -24.9 2.6 -33.5 0.5z m32.6 -11.4 c21.1 -7.1 37.5 -26.2 42.1 -49 8.1 -40.6 -32.5 -81.4 -71 -71.5 -11.9 3.1 -24.6 11.3 -33 21.4 -4.8 5.8 -11.2 18.8 -13.2 27 -4.5 17.9 1.7 39.7 15.8 55.1 l4.9 5.4 -0.6 -5.5 c-0.3 -3 -1.3 -9.1 -2.2 -13.5 -1.9 -9.6 -1.3 -18.2 2.2 -35.6 1.4 -6.7 2.5 -13.4 2.5 -14.8 0.1 -4.4 3 -6.8 17.8 -14.6 18.7 -9.8 19.1 -9.8 36.8 -1.2 7.2 3.5 14.9 7.1 17.2 8 4.1 1.6 4.2 1.8 4.2 6.2 0 2.5 -0.4 4.5 -0.9 4.5 -0.5 0 -1.2 1.3 -1.6 3 -0.7 3.1 -3.8 6 -6.5 6 -1.2 0 -1.4 1 -1.2 4.4 0.4 4.3 0.2 4.5 -4.7 8.4 -7 5.6 -28.9 26.2 -29.5 27.9 -0.8 1.9 1.2 26.7 2.3 29.6 0.9 2.3 1.4 2.4 5.8 2 2.6 -0.3 8.4 -1.7 12.8 -3.2z m-8.6 -67.8 c2.4 -1.4 5.6 -2.9 7 -3.3 2.2 -0.5 1.5 -0.9 -4 -1.9 -7.1 -1.4 -12.6 -0.5 -16.4 2.4 -2 1.5 -1.9 1.5 0.8 4 3.3 2.9 5.7 2.7 12.6 -1.2z"/>
 </g>
 <g fill="#575e95">
  <path d="M70.5 141.8 c-0.4 -1.3 -0.9 -9.9 -1.2 -19.3 l-0.5 -17 12.9 -12 c7.2 -6.6 15 -13.6 17.4 -15.6 3.6 -3 4.2 -3.9 3.2 -5 -0.7 -0.7 -1.3 -2.6 -1.3 -4.1 0 -2.2 0.5 -2.8 2.1 -2.8 3.4 0 5.6 -1.8 7.9 -6.5 2.1 -4.3 2 -6.5 -0.2 -6.5 -0.5 0 -8 -3.4 -16.7 -7.5 -8.6 -4.1 -16.4 -7.5 -17.3 -7.5 -2.6 0 -30.1 14.8 -32 17.3 -1 1.2 -1.8 3.4 -1.8 4.8 0 1.4 -1.1 8 -2.4 14.5 -3.6 18 -3.9 21.9 -2.2 30.2 0.9 4 1.6 10.2 1.6 13.8 l0 6.4 -3.8 0 c-3.3 0 -4.2 -0.6 -7.8 -5.2 -9.2 -11.8 -13.4 -24.8 -13.4 -41.3 0 -15.4 4.2 -29.3 11.9 -39.5 1.4 -1.9 2.6 -3.9 2.6 -4.3 0 -1.6 4.7 -5.7 5.8 -5 0.6 0.3 0.7 0.1 0.3 -0.5 -0.7 -1.2 5 -5.9 6.5 -5.4 0.5 0.1 3.2 -0.9 5.9 -2.3 7.9 -4 15.4 -5.5 27.3 -5.5 19.1 0 30.2 4.4 42.7 17 8.1 8.2 12.7 16.1 15.7 27.2 2.3 8.5 2.3 27.9 0 36.7 -6.7 25.2 -29.5 44 -53.4 44.1 -4.9 0 -6.3 0.3 -6.3 1.5 0 2.3 -2.7 1.8 -3.5 -0.7z"/>
  <path d="M67.5 73.7 c-4.3 -4.3 -4.2 -6.3 0.4 -9.4 3 -2 4.6 -2.3 13 -2.3 12.8 0 14.1 0.4 14 4.4 0 2.8 -0.6 3.4 -6.7 6.4 -3.7 1.8 -9 3.6 -11.9 3.9 -5 0.5 -5.4 0.4 -8.8 -3z"/>
  <path d="M65.5 49.3 c0.6 -0.6 3.1 -2 5.8 -3.1 3.4 -1.5 4.7 -1.7 4.7 -0.8 0 0.7 -1.8 1.8 -4.1 2.5 -2.3 0.7 -4.8 1.5 -5.8 1.8 -1.1 0.4 -1.3 0.3 -0.6 -0.4z"/>
 </g>
 <g fill="#211c5b">
  <path d="M71.7 144.4 c-0.2 -0.5 -0.8 -2.9 -1.2 -5.4 -0.4 -2.5 -0.9 -5.2 -1 -6 -0.1 -0.8 -0.6 -7.1 -1 -13.9 l-0.7 -12.4 9.8 -9.4 c5.5 -5.2 13.4 -12.4 17.7 -16 4.2 -3.5 7.7 -6.9 7.7 -7.3 0 -1.6 -4.4 -4 -7.4 -4 -1.5 0 -5.3 1.4 -8.2 3.1 -7.4 4.2 -14.8 4.9 -18.7 1.9 -1.6 -1.3 -3.3 -3.4 -3.8 -4.9 -0.9 -2.2 -0.7 -2.9 1.5 -4.8 5.7 -4.9 14.4 -5.4 29.1 -1.9 10.9 2.7 12.9 2.4 14.6 -2.1 0.5 -1.4 0.8 -2.7 0.7 -2.8 -0.2 -0.2 -5.7 -2.4 -12.3 -5 -6.6 -2.6 -13 -5.4 -14.2 -6.3 -3.1 -1.9 -8.6 -1.1 -18.7 2.8 -4.3 1.7 -8.1 2.9 -8.3 2.6 -0.3 -0.3 0.3 -0.9 1.3 -1.3 1 -0.3 5.1 -2 8.9 -3.6 12.5 -5.2 12.6 -5.2 17.6 -2.7 9.7 5 27.9 11.7 27.9 10.3 0 -0.7 -0.8 -1.6 -1.7 -2 -1 -0.3 -8.3 -3.7 -16.3 -7.5 -8 -3.8 -15.7 -7.2 -17.1 -7.5 -1.8 -0.3 -4.8 0.7 -10 3.5 -4.1 2.1 -10.6 5.6 -14.6 7.6 -8.3 4.4 -9.9 6.4 -10.7 13.2 -0.3 2.7 -1.2 8.3 -2.1 12.4 -2.9 13.9 -3.7 21.8 -2.6 27.3 1.1 5.7 1.5 8.2 3.2 20.4 1.6 12 1.4 12.3 -4.7 7.5 -9.9 -7.8 -18.8 -22.1 -21.9 -35.5 -1.9 -8.1 -1.9 -24.6 0 -32.2 0.8 -3.3 3.4 -9.8 5.7 -14.5 7.5 -15.5 24 -29.2 40.4 -33.4 7.8 -2 22.2 -2.1 29.9 -0.1 8.9 2.2 19.6 8 26.4 14.2 27.3 24.7 29.5 68.2 4.7 95 -8.3 8.9 -15.8 13.9 -26.1 17.4 -8.2 2.8 -22.8 4.8 -23.8 3.3z m17.3 -7.9 c9.9 -2.6 18 -7.4 25.5 -14.9 12 -12 17.8 -26.1 17.8 -43.1 0.1 -17.1 -5.4 -30.5 -17.3 -42.5 -11.7 -11.8 -23.8 -17 -39.7 -17 -42.8 0 -70.7 47.8 -50.7 87.2 2.8 5.6 10.3 15.8 11.6 15.8 1.2 0 0.9 -4.8 -0.8 -15.1 -0.9 -5.2 -1.4 -11.8 -1.1 -14.9 0.9 -9.9 5.8 -34.4 7.5 -38 1.4 -2.9 4 -4.6 16.2 -11.1 18.6 -10 18.7 -10 35.7 -1.6 7 3.5 14.7 7.1 17.1 8 2.9 1.2 4.6 2.6 5.3 4.4 1 2.8 1 3 -2.6 9.3 -1.9 3.3 -5.3 6 -7.6 6 -1.6 0 -1.8 0.3 -0.9 1.9 1.9 3.6 1.1 5.9 -3.2 9.3 -2.2 1.8 -8 6.9 -12.7 11.3 -4.8 4.4 -10.6 9.7 -12.9 11.7 l-4.2 3.7 0 9.4 c0 5.2 0.3 12.2 0.6 15.6 l0.7 6.1 5.1 0 c2.8 0 7.6 -0.7 10.6 -1.5z m-2.2 -67.2 c4.8 -2.7 5.1 -3.1 3 -3.7 -7.2 -1.9 -21.8 0.3 -21.8 3.3 0 1 3.1 3.7 5 4.3 2.6 0.8 8.4 -0.8 13.8 -3.9z"/>
 </g>
</svg>