<?xml version="1.0" encoding="utf-8"?>
<!DOCTYPE svg PUBLIC "-//W3C//DTD SVG 1.0//EN" "http://www.w3.org/TR/2001/REC-SVG-20010904/DTD/svg10.dtd">
<svg version="1.0" xmlns="http://www.w3.org/2000/svg" width="155px" height="163px" viewBox="0 0 155 163" preserveAspectRatio="xMidYMid meet">
 <g fill="#ffffff">
  <path d="M64 153.6 c-48.5 -10.3 -71.4 -67.1 -44.9 -111.2 3.6 -5.9 14.1 -16.8 20.4 -21.1 10 -6.8 25.1 -11.3 37.7 -11.3 10.7 0 20.1 2.4 30.6 7.5 7.4 3.7 10.9 6.2 17 12.3 8.8 8.8 13.3 16 17.3 27.3 9.7 27.1 2.9 57.9 -17 77.7 -12.4 12.4 -27.5 19 -45.1 19.7 -5.9 0.3 -12 -0.1 -16 -0.9z m24.6 -10.4 c23.3 -6.2 40.2 -23.6 46.4 -47.8 3.6 -13.9 2 -26 -5.5 -41.2 -8.9 -17.9 -24.8 -30.1 -44.4 -33.9 -7.9 -1.6 -9 -1.6 -16.4 0 -4.4 0.9 -11.4 3.2 -15.6 5.2 l-7.6 3.7 4 3.5 c2.2 1.9 7.8 5.2 12.5 7.4 25.5 12 26.8 12.8 38.6 24.4 l11.2 11 0.7 7.2 c0.8 9.1 -0.3 19.3 -2.3 21.6 -0.9 1 -2.9 1.7 -5.4 1.7 -3 0 -3.8 0.4 -3.8 1.8 0 3.6 -3.5 5.5 -8.9 4.9 -5.9 -0.7 -10.9 -3.1 -17.8 -8.5 l-5 -4 0.4 4.1 c0.2 2.4 -0.2 5.3 -0.9 6.7 -1.1 2.1 -2.1 2.5 -5.8 2.5 -4.4 0 -4.7 -0.2 -15.1 -11.2 -8.8 -9.4 -10.8 -12 -11.8 -16 -2.5 -9.5 -4.2 -13 -9.2 -18.6 -2.8 -3.1 -5.4 -5.7 -5.9 -5.7 -1.4 0 -4 13.4 -4 20.2 0.1 28.1 21.3 54.5 49 61.3 7.8 1.9 14.5 1.8 22.6 -0.3z"/>
 </g>
 <g fill="#575e95">
  <path d="M62 143.4 c-22.1 -4.7 -39.7 -23 -44.6 -46.4 -1.8 -8.3 -1.4 -26.5 0.6 -33.2 1 -3.4 1.5 -3.8 4.4 -3.8 2.3 0 4 0.9 6.3 3.3 4.3 4.4 8.3 10.6 8.3 12.7 0 1 0.8 4.1 1.7 7 1.3 4.1 3.7 7.3 12.2 16.3 5.8 6.2 11.1 11.3 11.7 11.5 2 0.5 4.4 -4 4.4 -8 0 -3.7 0.1 -3.8 3.5 -3.8 2.5 0 4.9 1.1 8.2 3.6 5.2 4 11.8 7.3 14.5 7.4 1 0 2.7 -1.3 4 -3 1.2 -1.7 3.1 -3 4.4 -3 2.6 0 7.4 -3.6 7.4 -5.6 0 -0.7 -0.9 -1.9 -2 -2.6 -2.6 -1.7 -2.5 -2.6 0.3 -3 1.9 -0.3 2.2 -1 2.5 -5.2 0.2 -2.7 -0.2 -6.2 -0.9 -7.8 -0.6 -1.5 -6 -7.4 -11.9 -13.1 -11 -10.5 -15.9 -13.5 -38 -23.5 -3.6 -1.6 -8.4 -4.4 -10.7 -6.1 -3.6 -2.6 -4.3 -3.7 -4.3 -6.5 0 -3.1 0.4 -3.6 5.7 -6.1 11.4 -5.3 27.8 -7 41.6 -4 19.7 4.1 37 20.9 43.1 41.5 2.5 8.4 3 23.9 1.2 34 -6.2 34.2 -38.4 55 -73.6 47.4z"/>
 </g>
 <g fill="#231d5f">
  <path d="M63 146.5 c-24.2 -5.9 -42.6 -25.6 -48.1 -51.4 -1.5 -7.1 -0.6 -26.1 1.5 -32.6 2.8 -8.9 2.8 -8.9 11 -0.3 7.4 7.7 9 10.6 11.6 21 1 3.9 3.1 6.8 11.8 16 5.8 6.2 11.1 11.4 11.7 11.6 1.7 0.4 3.8 -2.4 3.8 -5.3 0 -1.4 -2.4 -6.2 -5.2 -10.6 -2.9 -4.5 -4.5 -7.9 -3.6 -7.5 2.3 0.9 13.3 8.5 19.3 13.3 9.2 7.5 16.4 10.3 19.4 7.6 3.1 -2.8 2.1 -5 -4.4 -9.9 -14.4 -10.9 -18.8 -14.6 -18.3 -15.5 0.6 -0.8 18.3 12 24.6 17.8 3 2.8 7 3 9.2 0.5 1.8 -2 2.3 -5.2 0.8 -5.2 -1.5 0 -20.9 -13.4 -26 -17.8 -2.4 -2.1 -4.1 -4.4 -3.8 -4.9 0.4 -0.7 2 0.1 3.9 1.9 8.7 8.1 24.1 18.3 26.3 17.4 0.8 -0.3 1.5 -1.6 1.5 -2.9 0 -1.9 -1.6 -3.4 -6.8 -6.9 -9.2 -6.1 -21.1 -16.8 -20.5 -18.4 0.3 -0.8 2.6 0.8 6.5 4.4 5.9 5.7 17.4 14.2 19 14.2 0.4 0 0.8 -1 0.8 -2.2 0 -1.6 -3.5 -5.7 -11.2 -13.3 l-11.3 -11 -19.5 -9.7 c-14.4 -7.1 -20.5 -10.8 -23.5 -13.8 -3.9 -4 -4 -4.2 -2 -5.6 7.9 -6 24.5 -11.4 34.9 -11.4 35.3 0.1 63.5 29.6 63.6 66.6 0 24.7 -14.4 48.4 -35.9 59 -12.4 6.1 -28.4 8 -41.1 4.9z m24.5 -6 c45.3 -9.5 61.8 -68.2 28.4 -101.6 -18 -18.1 -46.7 -22 -67.4 -9.2 -2 1.3 -2 1.3 0.5 3.3 1.4 1.1 7.7 4.5 14 7.6 6.3 3 14.3 7 17.8 8.7 7.2 3.7 21.9 16 27.9 23.5 3.5 4.4 4.1 6 4.7 11.7 0.4 3.7 0.2 7.3 -0.3 8.3 -0.6 1.1 -0.8 2.8 -0.5 3.9 1.1 4.2 -3.8 10.3 -8.2 10.3 -1 0 -2.9 1.4 -4.4 3.1 -2.1 2.6 -3.3 3.1 -6.7 3.1 -5.2 -0.1 -11.2 -2.7 -17.6 -7.5 -2.6 -2.1 -4.9 -3.7 -5.2 -3.7 -0.3 0 -0.5 1.8 -0.5 3.9 0 3.2 -0.6 4.4 -3.1 6.5 -1.7 1.4 -3.8 2.6 -4.8 2.6 -2 0 -22.7 -21.6 -25.3 -26.4 -0.9 -1.7 -2 -4.9 -2.4 -7.1 -0.9 -5.3 -3.5 -10.2 -8 -14.8 -4.3 -4.5 -4.7 -4.2 -6.3 4.7 -4.7 25.4 8.7 53 31 64 12.6 6.2 23.7 7.8 36.4 5.1z"/>
 </g>
</svg>