<?xml version="1.0" encoding="utf-8"?>
<!DOCTYPE svg PUBLIC "-//W3C//DTD SVG 1.0//EN" "http://www.w3.org/TR/2001/REC-SVG-20010904/DTD/svg10.dtd">
<svg version="1.0" xmlns="http://www.w3.org/2000/svg" width="152px" height="164px" viewBox="0 0 152 164" preserveAspectRatio="xMidYMid meet">
 <g fill="#ffffff">
  <path d="M67 156.7 c-0.3 -0.3 -2.1 -0.8 -4 -1 -1.9 -0.2 -4.4 -0.8 -5.5 -1.2 -1.1 -0.5 -4.2 -1.7 -7 -2.7 -14.1 -5.5 -27.8 -18.5 -35.1 -33.4 -10 -20.4 -10.9 -41.4 -2.7 -62.6 3.9 -10 8.9 -17.3 17.6 -25.5 13 -12.3 28.2 -18.3 46.2 -18.3 12.1 0 19.2 1.6 30.5 7.1 7 3.4 10.1 5.8 17.5 13.3 11.2 11.2 16.5 21.1 19.7 36.3 3.5 17 1.4 33.1 -6.2 48.8 -8.8 17.8 -22.9 29.8 -43.5 37 -4.8 1.7 -26.4 3.4 -27.5 2.2z m23 -12.3 c9.5 -2.7 18.9 -8.3 26.4 -15.9 12.6 -12.6 18.6 -26 19.3 -43 0.2 -5.5 0 -10.6 -0.5 -11.4 -0.8 -1.1 -2.7 -0.1 -9 4.7 -11.2 8.5 -10.8 8.1 -11.5 16.7 -0.7 9.1 -4.4 17.8 -8.5 19.9 -10.3 5.3 -29.2 9.6 -29.2 6.6 0 -0.5 -1.3 -1 -2.9 -1 -4.6 0 -8 -1.7 -9.9 -5 -1.2 -2.1 -2.5 -3 -4.3 -3 -3 0 -4.5 -1.4 -5.4 -5.3 -0.4 -1.5 -1.3 -2.7 -2.1 -2.7 -2.4 0 -5.4 -4.2 -5.4 -7.6 0 -2.6 -0.4 -3.3 -2.2 -3.6 -2.1 -0.3 -2.3 -0.9 -2.6 -8.6 -0.3 -8.9 2 -24.9 4.1 -28.2 3.1 -5.1 20.8 -10 35.9 -10 l9.7 0 8.1 -7.1 c4.4 -4 8 -7.5 8 -8 0 -1.4 -14.2 -7.8 -21 -9.5 -21.6 -5.4 -47.9 7.2 -61.4 29.4 -12.1 19.9 -12 43.5 0.1 64.1 5.2 8.8 17.2 19.8 26.5 24.4 13.2 6.5 24.7 7.7 37.8 4.1z"/>
 </g>
 <g fill="#575e95">
  <path d="M58.1 144.4 c-9.1 -2.4 -17.1 -7.3 -25.1 -15.4 -12.6 -12.6 -17.4 -25.1 -17.4 -45.5 0 -19.6 4.6 -31.8 17.4 -46.1 6.7 -7.4 14 -13.5 14 -11.5 0 0.6 1.9 0.2 4.3 -0.8 6.8 -2.9 14 -4.1 25 -4.1 11.7 0 18.9 1.6 27.7 6 5.5 2.8 6 3.3 6 6.3 0 2.9 -1 4.2 -7.5 10 l-7.5 6.6 -9.3 0 c-15.2 -0.1 -33.9 5.2 -36.5 10.4 -2.1 4.1 -3.2 10.2 -3.9 19.9 l-0.6 9.7 2.7 1 c2 0.8 2.6 1.7 2.6 3.9 0 3 3.2 7.2 5.4 7.2 0.8 0 1.7 1.2 2.1 2.7 0.9 3.8 2.3 5.3 5 5.3 1.4 0 3.3 1.3 4.8 3.4 3.2 4.2 6.3 5 11.6 3.1 4.1 -1.4 5.7 -0.5 2.4 1.4 -4 2.2 0.3 2.3 7 0.2 14.6 -4.7 17.2 -6.3 20.1 -12.4 1.9 -3.9 2.9 -7.8 3.3 -13.2 0.7 -8.6 0.5 -8.3 10.8 -16.1 7.3 -5.5 11.7 -6.8 12.9 -3.8 0.3 0.9 0.6 6 0.6 11.3 0 28.6 -15.7 51.8 -40.3 59.6 -6.6 2.1 -9.7 2.5 -20 2.4 -7.3 0 -14.4 -0.6 -17.6 -1.5z"/>
  <path d="M65 101.6 c0 -5 2.1 -15.6 3.2 -15.6 0.6 0 0.8 0.6 0.5 1.4 -0.3 0.8 -0.9 4.3 -1.3 7.8 -0.7 7 -2.3 11.3 -2.4 6.4z"/>
  <path d="M58 88 c0 -2.4 2.3 -10.6 3.3 -11.5 0.6 -0.7 0.8 -0.2 0.3 1.5 -0.3 1.4 -0.9 4.2 -1.2 6.3 -0.6 3.5 -2.4 6.3 -2.4 3.7z"/>
  <path d="M51.7 72.8 c0.9 -4.8 1.9 -7.3 2.5 -6.2 0.7 1.3 -1.2 9.4 -2.2 9.4 -0.5 0 -0.7 -1.5 -0.3 -3.2z"/>
 </g>
 <g fill="#221e5e">
  <path d="M63.5 148.4 c-10.8 -2.4 -20.6 -7.7 -29.3 -15.9 -8.9 -8.3 -14.1 -16.6 -17.9 -28 -2.3 -7 -2.7 -9.6 -2.7 -21 0 -11.7 0.3 -13.8 2.8 -21 6.8 -19.7 21.1 -34.5 39.8 -41.3 6.4 -2.4 8.8 -2.7 19.8 -2.7 10.4 0 13.6 0.4 19.1 2.3 7.1 2.4 19.4 9.4 19.4 10.9 0 0.5 -4.4 4.8 -9.8 9.6 l-9.8 8.7 -9.7 0 c-14.3 0 -30.5 4.2 -35 9 -3 3.3 -7.1 28.1 -4.9 30.8 2 2.6 3.5 1.2 4.1 -4.1 0.9 -7.1 4 -19.9 4.7 -19.3 0.3 0.3 -0.3 4.5 -1.3 9.3 -0.9 4.9 -2 11.7 -2.4 15.3 -0.5 5.8 -0.4 6.8 1.5 8.8 3 3.1 4.1 2.8 4.1 -1.1 0 -3.6 4.4 -21.5 5.6 -22.5 0.4 -0.4 0.4 0.4 0 1.8 -0.4 1.4 -1.6 7.7 -2.8 14.1 -1.7 10.2 -1.8 12.1 -0.6 14.5 0.7 1.6 2.3 3 3.5 3.2 1.9 0.3 2.2 -0.3 2.8 -4.5 1.3 -10.2 1.6 -11.9 2.2 -15.5 0.3 -2.1 0.9 -3.8 1.3 -3.8 0.4 0 0.4 1.7 -0.1 3.8 -0.4 2 -1.1 7.8 -1.5 12.8 -0.6 8.6 -0.5 9.1 1.9 11.9 1.9 2.2 3.3 2.9 5.9 2.8 5 -0.1 13.4 -4.1 16.4 -7.7 2.4 -2.8 2.6 -3.6 2.1 -9.4 -0.6 -8.2 -2 -9.7 -5.3 -5.8 -1.8 2 -2.2 3.2 -1.5 3.9 0.6 0.6 1.1 1.7 1.1 2.5 0 1.2 -0.3 1.2 -1.5 0.2 -1.6 -1.3 -2.1 -1 -5.7 4.4 -1.7 2.6 -1.6 -0.4 0.2 -3.9 1.1 -2.2 2 -5.1 2.1 -6.5 0 -1.4 0.4 -3.4 0.9 -4.5 0.7 -1.6 0.9 -1.4 0.9 1.4 l0.1 3.4 2.5 -2.3 c1.4 -1.3 2.3 -3 2.1 -3.7 -1.3 -3.2 4 0.1 5.9 3.7 1.7 3.2 1.9 4.4 0.8 3.7 -0.5 -0.3 -0.8 2 -0.8 5.1 -0.1 7.4 -2.1 10.4 -9.7 14.2 -12.3 6.1 0.8 4.1 15.8 -2.5 4.5 -2 5.5 -3 7.8 -7.8 1.9 -3.9 2.9 -7.8 3.3 -13.2 0.7 -8.4 1.4 -9.5 9.8 -15.3 2.2 -1.5 4.2 -2.9 4.5 -3.3 0.3 -0.3 2.7 -2.2 5.4 -4.2 3.5 -2.7 5.3 -3.4 6 -2.7 0.7 0.7 1.1 6.8 1.1 16.3 0 14 -0.2 15.8 -2.7 22.5 -3.9 10.6 -8.4 17.7 -16.4 25.7 -7.5 7.5 -16.7 13.1 -26.4 15.9 -8.1 2.4 -21.2 2.9 -29.5 1z m29.2 -7.9 c23.5 -7.4 40.3 -31.2 40.3 -56.9 0 -10.7 -0.5 -10.9 -9.7 -3.8 l-8 6.1 -0.6 7.6 c-0.7 8.2 -4 16.6 -7.9 20.2 -2.7 2.3 -17.1 8 -23 8.9 -2.1 0.4 -4.9 0.2 -6.1 -0.4 -1.2 -0.6 -3.9 -1.3 -5.9 -1.7 -2.3 -0.3 -4.6 -1.6 -6.1 -3.5 -1.4 -1.6 -4.1 -3.6 -6.2 -4.4 -2.4 -1 -4 -2.6 -4.8 -4.6 -0.6 -1.6 -1.5 -3 -1.9 -3 -1.4 0 -5.8 -5.5 -5.8 -7.3 0 -1.1 -1.3 -3.2 -3 -4.7 -3.5 -3.3 -3.6 -4.8 -1.5 -19.9 1.8 -12.9 3.8 -16.8 9.6 -19.8 7.2 -3.7 20.3 -6.5 31.5 -6.7 l10.1 -0.2 6.7 -6 c3.6 -3.2 6.6 -6.2 6.6 -6.6 0 -0.4 -2.7 -2.1 -6 -3.8 -21.9 -11 -47 -7 -64.4 10.3 -12.1 12.1 -17.9 26.1 -17.9 43.2 0 17.3 5.4 30.6 17.3 42.5 12 12.1 23 16.8 39.7 16.9 7.2 0.1 10.9 -0.5 17 -2.4z"/>
 </g>
</svg>