<?xml version="1.0" encoding="utf-8"?>
<!DOCTYPE svg PUBLIC "-//W3C//DTD SVG 1.0//EN" "http://www.w3.org/TR/2001/REC-SVG-20010904/DTD/svg10.dtd">
<svg version="1.0" xmlns="http://www.w3.org/2000/svg" width="159px" height="162px" viewBox="0 0 159 162" preserveAspectRatio="xMidYMid meet">
 <g fill="#ffffff">
  <path d="M66.5 151.4 c-3.8 -0.8 -11.3 -3.5 -16.5 -6.1 -17.2 -8.4 -29.8 -23.8 -36.1 -44.3 -1.9 -6.1 -2.4 -9.8 -2.4 -20 0 -13.2 1 -19.1 5.2 -29.3 3.7 -9.2 9.7 -17.9 17.2 -25 8.1 -7.6 14.8 -11.6 25.6 -15.2 31.4 -10.6 67 4.4 81.8 34.5 10.2 20.8 11.1 43.1 2.6 63.6 -12.9 30.9 -45.2 48.4 -77.4 41.8z m24.5 -10 c11.4 -2.6 20.6 -7.9 29.5 -16.9 4.8 -4.8 9.3 -10.6 11.3 -14.3 l3.3 -6.2 -4.2 0 c-3.9 0 -4.8 0.5 -9.5 5.5 -6.2 6.5 -8.5 7.5 -16.9 7.5 -4.1 0 -8.3 0.7 -11.5 2 -5.6 2.2 -11.5 2.5 -17.2 1 -3.9 -1.1 -5.8 -3.4 -5.8 -6.9 0 -1.4 -0.6 -2.1 -1.9 -2.1 -2.8 0 -6.1 -4.7 -6.1 -8.6 l0 -3.4 -12.2 0.6 c-7.9 0.4 -13.3 0.2 -15 -0.5 -2.6 -1 -2.8 -1.5 -2.8 -6.5 0 -3.1 0.5 -5.8 1.2 -6.3 0.7 -0.5 9.8 -2 20.2 -3.3 l18.8 -2.4 -15.8 -7.9 c-8.8 -4.3 -16.5 -8.6 -17.1 -9.5 -1.6 -2 -1.7 -9.4 -0.1 -11 2.2 -2.2 7.2 -1.3 25.1 4.7 11.4 3.8 17.7 5.5 17.7 4.7 0 -0.6 1.7 -2.8 3.8 -4.8 10 -9.6 18.7 -9.2 33.7 1.6 4.5 3.2 5.7 3.6 11.2 3.6 3.5 0 6.3 -0.2 6.3 -0.5 0 -1.8 -5.8 -12.8 -9.5 -18 -9.2 -13 -23.5 -22.1 -39.2 -25.2 -7.6 -1.5 -9 -1.5 -16.3 0 -24.6 4.8 -43.6 23.2 -50.1 48.5 -2.4 9.6 -2.4 16.9 0.1 26.6 5 19.7 17.1 35 34.6 43.6 11.7 5.7 22.8 7.2 34.4 4.4z"/>
 </g>
 <g fill="#575e95">
  <path d="M63.2 141 c-22.3 -6 -38.6 -23.9 -42.8 -47 -1.9 -10.1 -1.3 -25.7 1.2 -34 6.1 -20.7 23.4 -37.4 43.1 -41.5 20.5 -4.4 41.7 0.8 55.6 13.5 8.9 8.1 16.7 22 16.7 29.6 l0 3.7 -8.2 -0.5 c-7.6 -0.4 -8.7 -0.7 -13.3 -4 -5.9 -4.2 -12.8 -7.8 -15 -7.8 -4 0 -15.5 8.7 -15.5 11.7 0 2.4 -5.5 1.3 -23.5 -4.7 -15.3 -5.1 -18.1 -5.8 -19.3 -4.6 -3.2 3.1 -0.5 5.5 15.9 13.6 l15.9 8 0 3.5 c0 2.5 -0.4 3.5 -1.6 3.5 -4.8 0 -35.1 4.4 -36.1 5.2 -0.7 0.6 -1.3 2.1 -1.3 3.4 0 1.2 0.6 2.6 1.3 3.1 0.6 0.4 7.3 1 14.7 1.3 l13.4 0.5 0.7 3.2 c0.7 3.8 2.5 6.2 5.3 7.2 1 0.4 2.4 2.3 3 4.2 0.9 2.8 1.9 3.6 5.6 4.8 4.1 1.3 4.9 1.3 10.5 -0.7 3.7 -1.4 8.4 -2.2 12.2 -2.2 8.2 0 10.5 -1 16.7 -7.5 5.1 -5.4 5.3 -5.5 10.9 -5.5 l5.7 0 0 3.1 c0 7.7 -12.7 24.2 -23.4 30.4 -9.7 5.7 -17.2 7.7 -29.6 8.1 -9.2 0.3 -12.9 0 -18.8 -1.6z"/>
  <path d="M104.9 88 c-2 -1.1 -3.9 -2.7 -4.3 -3.6 -1.1 -2.9 0.2 -2.8 2.7 0.2 1.4 1.5 4 3.4 5.8 4 2.2 0.8 2.7 1.3 1.4 1.3 -1.1 0 -3.6 -0.9 -5.6 -1.9z"/>
 </g>
 <g fill="#211d5b">
  <path d="M65.6 144.4 c-17.3 -4.2 -33.7 -17.6 -41.7 -34.1 -16.4 -34.1 -2.6 -74.7 30.7 -90.5 22.9 -10.8 50.7 -5.7 68.8 12.6 8.1 8.1 12.7 15.3 16.1 25.3 l2.4 6.8 -10.1 0.3 -10.1 0.3 -5.6 -3.9 c-7.1 -5 -13.4 -8.2 -16.1 -8.2 -4.8 0 -13.9 8 -15.9 14 -1 3 -0.8 4.5 1 10.2 1.7 5 2.7 6.8 4 6.8 2.4 0 4.1 -3.3 5 -9.8 0.9 -6.3 0.8 -6.2 4.5 -6.5 l2.9 -0.2 -0.3 5.9 c-0.3 7.4 1.1 11.9 4.3 13.6 1.4 0.7 2.3 1.5 2.1 1.7 -0.2 0.3 -1.8 -0.3 -3.4 -1.1 -3.9 -2 -5.6 -7 -4.7 -13.6 0.5 -3.3 0.3 -5 -0.4 -5 -1.5 0 -2.7 2.9 -3.4 7.8 -0.8 6.4 -3.1 9.4 -6.9 9 -2.9 -0.3 -3.3 -0.8 -5.5 -7.3 -1.3 -3.8 -2.1 -8.1 -1.8 -9.5 0.5 -2.4 0 -2.6 -18.7 -8.7 -16.8 -5.4 -19.5 -6.1 -20.7 -4.8 -3.1 3.1 0 5.7 17.1 14.2 9.1 4.5 17.1 9 17.9 9.9 2.4 2.9 -1 3.9 -20.8 6.4 -10.3 1.3 -19.4 2.8 -20 3.3 -2.4 1.8 -1.5 5.7 1.4 6.8 3.3 1.2 25.8 0.3 40.1 -1.7 14 -1.9 18.9 -1.8 20 0.4 0.5 0.9 0.7 2.2 0.5 2.8 -0.2 0.6 0.8 1.9 2.2 2.8 3.2 2.1 3.4 7.2 0.4 11 l-2 2.6 4.5 0 c6.4 0 9.1 -1.3 15 -7.4 l5.2 -5.4 8.2 -0.4 c5.8 -0.2 8.2 0 8.2 0.9 0 0.6 -1.9 4.9 -4.2 9.5 -8.3 16.3 -24.5 29.2 -41.8 33.2 -8 1.9 -20.5 1.9 -28.4 0z m31.5 -7.7 c3.7 -1.3 8.8 -3.6 11.5 -5.2 6.9 -4 16.3 -13.9 20.2 -21.3 l3.3 -6.2 -3.5 0 c-2.9 0 -4 0.7 -6.3 3.7 -1.5 2 -4.8 4.9 -7.2 6.5 -3.9 2.4 -5.5 2.8 -11.7 2.8 -5 0 -8.5 0.6 -11.5 2 -8.2 3.7 -18.1 1.9 -21 -3.8 -0.7 -1.5 -2.8 -4 -4.6 -5.5 -1.8 -1.6 -3.6 -4.3 -4.1 -6 l-0.8 -3.2 -13 -0.5 c-7.1 -0.3 -13.4 -0.8 -14.1 -1.3 -0.6 -0.4 -1.7 -2.3 -2.3 -4.3 -1.1 -3.2 -1 -3.9 0.7 -6.2 2.3 -3 3.3 -3.3 23.6 -5.7 8.1 -1 14.7 -2.1 14.7 -2.4 0 -0.4 -6.3 -3.8 -14.1 -7.6 -7.8 -3.9 -15.2 -8.1 -16.5 -9.4 -4.3 -4.3 -2.3 -12.1 3.2 -12.1 1.2 0 10.2 2.7 19.9 6 l17.5 5.9 4.2 -4.5 c7.3 -8 15.1 -10.3 22.1 -6.8 1.8 0.9 5.8 3.4 8.9 5.6 4.5 3 7 4 11.8 4.5 3.3 0.3 6 0.3 6 0 0 -1.8 -3.8 -9.9 -7.2 -15.4 -5.4 -8.5 -13.7 -15.9 -23.3 -20.5 -42.2 -20.2 -88.7 17.5 -80.1 65.2 6.3 35.2 42 57.3 73.7 45.7z m-7.8 -20.4 c9.9 -3.6 15.7 -13.3 8.4 -14.1 -1.6 -0.2 -3.6 0.3 -4.6 1.2 -2.4 2.2 -11.9 6.3 -16.3 7.1 -2.1 0.4 -3.8 1 -3.8 1.4 0 1.7 2.7 4.2 5.5 5 4.4 1.3 5.5 1.3 10.8 -0.6z m-3.7 -11.3 c7.4 -3.6 11.3 -7.5 9.6 -9.2 -0.9 -0.9 -3.9 -0.8 -13 0.5 -6.4 0.9 -12.9 1.7 -14.4 1.7 -2.3 0 -2.8 0.5 -2.8 2.4 0 1.3 0.9 3.5 2.1 5 3 3.8 10.4 3.7 18.5 -0.4z"/>
 </g>
</svg>