<?xml version="1.0" encoding="utf-8"?>
<!DOCTYPE svg PUBLIC "-//W3C//DTD SVG 1.0//EN" "http://www.w3.org/TR/2001/REC-SVG-20010904/DTD/svg10.dtd">
<svg version="1.0" xmlns="http://www.w3.org/2000/svg" width="150px" height="150px" viewBox="0 0 150 150" preserveAspectRatio="xMidYMid meet">
 <g fill="#ffffff">
  <path d="M60 146.4 c-13.3 -2.8 -28.4 -12.3 -37.9 -23.9 -16.4 -19.9 -20.7 -50.7 -10.6 -75.6 8 -19.9 26.1 -35.9 46.5 -41.5 8.7 -2.4 25.2 -2.4 34 -0.1 24.1 6.5 44.3 26.8 50.5 50.8 3.8 14.6 2.9 32.2 -2.3 46.4 -4.8 13.2 -16.9 28 -29.2 35.8 -13.6 8.5 -34 11.8 -51 8.1z m-2.5 -17.1 c-0.6 -5.2 -1.2 -6.3 -5.9 -11.3 -2.9 -3 -7.8 -8.9 -10.9 -13.1 -3.2 -4.2 -7.4 -8.9 -9.4 -10.4 -5.3 -3.9 -6.3 -5.4 -6.3 -9.1 0 -4.3 3 -6.4 9.2 -6.4 6 0 8.1 0.8 14.8 5.9 3 2.2 5.8 4.1 6.1 4.1 1.6 0 2 -11 0.9 -29.3 -1.3 -23.1 -0.9 -25 5.2 -25.5 2.9 -0.2 3.7 -0.8 4 -2.5 0.3 -1.9 1 -2.2 6 -2.5 4.6 -0.2 5.9 0 6.6 1.5 0.6 1 1.8 8.2 2.8 16.1 1 7.8 2.1 14.2 2.4 14.2 0.3 0 2.3 -5.1 4.5 -11.2 5.2 -15.4 4.8 -14.8 10 -14.8 5.8 0 8.5 2.5 8.5 7.9 0 3.1 0.4 4.1 2 4.6 4.1 1.3 3.9 3.7 -1.4 29.2 -1.4 6.7 -2.6 15.2 -2.6 19 -0.1 9.2 -1.5 14.6 -5.5 21.2 -2.9 4.7 -3.5 6.6 -3.5 11.4 l0 5.8 6 -3.2 c13.5 -7.2 25.7 -22.1 30.6 -37.3 3.7 -11.6 4.1 -20.1 1.5 -31 -5 -21.1 -20.3 -38.9 -39.5 -46.1 -13.1 -4.9 -23.4 -5.1 -36.4 -0.5 -28.6 10.1 -47.2 42.6 -40.8 71.4 1 4.2 3.6 11.4 5.8 15.9 5.3 10.6 17 22.5 27.3 28 3.9 2 7.4 3.7 7.9 3.7 0.4 0 0.5 -2.6 0.1 -5.7z"/>
 </g>
 <g fill="#575e95">
  <path d="M46.1 131.9 c-3.5 -1.7 -9.1 -5.8 -12.6 -9 -3.4 -3.3 -6.7 -5.9 -7.2 -5.9 -1 0 -4.9 -6.1 -4.6 -7.2 0.2 -0.4 -0.9 -3.3 -2.3 -6.5 -5.3 -12 -6.9 -29.5 -3.9 -43.8 2 -9.7 8.4 -22.2 14.8 -28.9 2.9 -3.1 5.1 -5.8 4.9 -6 -0.2 -0.3 1.8 -2 4.5 -4 2.6 -1.9 4.9 -3.1 5.1 -2.7 0.1 0.5 2.9 -0.2 6.1 -1.5 7.8 -3.2 19.7 -4.7 29.7 -3.9 27.6 2.3 48.8 22.3 53.3 50.6 4.4 26.6 -6 52.7 -26.2 65.8 -4.8 3.2 -7.1 4.1 -10.4 4.1 l-4.3 0 0 -7.5 c0 -6.6 0.4 -8 3 -12.2 4.1 -6.4 6 -13.3 6 -21.6 0 -3.8 1.4 -14.1 3.2 -22.9 l3.2 -16.1 -2.7 -2.1 c-1.9 -1.5 -2.7 -3.1 -2.7 -5.2 0 -3.6 -2.5 -7.4 -4.9 -7.4 -2.2 0 -3.6 1.5 -4.6 5 -0.4 1.4 -2.1 6.2 -3.7 10.8 -2.9 8 -3.1 8.2 -6.3 8.2 -3 0 -3.3 -0.3 -4.3 -4.2 -0.6 -2.4 -1.1 -5 -1.1 -5.8 0 -0.8 -0.6 -5.3 -1.4 -9.9 -1.5 -9.6 -3.5 -12.2 -7.1 -9.6 -1.2 0.8 -3.8 2.4 -5.8 3.5 -4.9 2.6 -7.4 7.3 -5.8 10.8 0.7 1.7 0.9 4.8 0.4 8.9 -0.4 3.7 -0.1 9.5 0.6 14.1 1 6.1 1 9.2 0 15 -1.2 7.1 -1.2 7.2 -4.2 7.2 -2.1 0 -4.9 -1.3 -8.2 -3.8 -5.3 -4 -10.8 -7.2 -12.4 -7.2 -1.9 0 -6.1 4.1 -5.6 5.4 0.3 0.7 2.5 2.8 4.9 4.5 2.4 1.7 6.9 6.6 10.1 10.8 3.1 4.3 7.9 10.1 10.6 12.9 4.8 5 4.9 5.2 5.5 12.7 l0.6 7.7 -4 0 c-2.5 0 -6.4 -1.2 -10.2 -3.1z"/>
  <path d="M91.7 76.1 c-2.4 -1.6 -2.6 -1.9 -1 -2.3 1.2 -0.3 2.6 -2.5 3.8 -6.2 1.1 -3.1 2.5 -5.6 3.2 -5.6 0.8 0 0.5 1.9 -1.2 6.5 -1.4 3.5 -2.2 7.1 -1.9 8 0.7 1.8 0.6 1.8 -2.9 -0.4z"/>
  <path d="M68 74.1 c0 -0.4 0.5 -1.2 1.1 -1.8 0.8 -0.8 0.8 -3.5 0 -9.8 -1.1 -7.8 -1 -10.7 0.3 -9.4 0.2 0.2 0.9 4.2 1.6 8.9 0.6 4.7 1.7 9 2.5 9.5 1 0.8 0.5 1.3 -2.1 2.1 -1.9 0.6 -3.4 0.8 -3.4 0.5z"/>
 </g>
 <g fill="#252162">
  <path d="M56.4 138.6 c-15.9 -5 -31 -18.8 -38.8 -35.6 -6.7 -14.4 -7.5 -35.5 -1.9 -50.5 5.1 -13.7 11.8 -22.7 22.7 -30.7 12.3 -9 22.6 -12.3 37.6 -12.2 16.9 0.1 31.5 6.8 44.2 20.2 31.5 33.4 19 91.3 -23.2 107.3 l-5 1.9 0 -9.8 c0 -9.2 0.2 -10.1 3.1 -14.7 4.5 -7.2 5 -8.8 5.9 -22 0.7 -9.9 2.5 -20.4 6.5 -37.2 0.5 -2 -1.6 -5.3 -3.4 -5.3 -0.7 0 -3.2 6 -8.8 21.4 -0.8 2.2 -1.1 4.6 -0.8 5.5 0.6 1.4 0.5 1.5 -1 0 -1.4 -1.4 -1.2 -2.6 2.6 -13 5.8 -16 7 -20.8 5.9 -22.9 -1.2 -2.2 -4.8 -3.6 -6 -2.3 -0.5 0.4 -3.1 7.1 -5.8 14.8 -8.7 24.7 -9.1 24.9 -11.2 6.5 -2.8 -24.1 -3 -25.8 -4.5 -27 -0.8 -0.6 -2.4 -1 -3.7 -0.8 -2.1 0.3 -2.3 0.8 -2.3 5.3 0.1 4.7 1.8 22.5 3.1 30.7 0.3 2.3 1.2 3.8 2.2 4 0.9 0.2 0.3 0.6 -1.5 0.9 -3 0.5 -3.1 0.4 -2.7 -2.1 0.3 -1.4 0.1 -5.9 -0.5 -10 -0.6 -4.1 -1.6 -11.2 -2.2 -15.7 -1.1 -7.6 -1.4 -8.3 -3.4 -8.3 -1.2 0 -2.9 0.7 -3.6 1.7 -1.5 1.7 -1.5 2.5 -0.5 30.3 0.6 19.5 0.1 23.4 -3.4 23.8 -2.5 0.2 -3.8 -0.5 -12.4 -6.6 -6 -4.3 -10.3 -5.1 -13.6 -2.4 l-2.5 2 3.5 2.8 c5.7 4.8 11.1 10.6 13.6 14.6 1.3 2.1 5.4 6.9 9 10.7 l6.6 7 0.5 9.6 c0.3 5.2 0.4 9.5 0.2 9.4 -0.2 0 -2.2 -0.6 -4.5 -1.3z m0.1 -11.3 c-0.5 -3.9 -1.6 -5.8 -5.4 -9.8 -2.7 -2.7 -7.4 -8.5 -10.5 -12.8 -3.2 -4.2 -7.7 -9.1 -10.1 -10.8 -7.2 -5.2 -8 -10.3 -2.3 -14.3 5 -3.5 12.2 -1.5 22 5.9 l4.7 3.6 0.6 -4.3 c0.4 -2.4 0.2 -13.2 -0.4 -24.1 -1.2 -22.3 -0.9 -24.2 5.2 -27.3 1.7 -0.9 4.3 -2.5 5.6 -3.5 3.2 -2.6 9.3 -2.5 11.6 0.1 1.3 1.4 2.4 5.8 3.6 14.3 1 6.7 1.9 12.9 1.9 13.7 0.1 2.5 1.5 -0.5 5 -11 1.8 -5.2 4.2 -10.3 5.2 -11.3 2.3 -1.9 6 -2.2 8.9 -0.7 2.5 1.4 5.2 6.7 4.6 9.1 -0.3 1.2 0.2 2.3 1.4 3 4.1 2.1 4.1 5.1 0.4 23.3 -2 10 -3.5 20.1 -3.5 24.2 0 8.4 -1.9 15.2 -6 21.7 -3.2 5.1 -4.3 13.7 -1.7 13.7 2.5 0 13.8 -8.3 18.7 -13.8 2.8 -3.1 6.9 -9.3 9.1 -13.7 19.7 -39.6 -7.8 -86.9 -50.5 -86.8 -21.9 0 -40.8 11.7 -50.5 31.4 -9.2 18.6 -9.3 37.3 -0.5 55.6 4.7 9.9 16 21.6 25.3 26.1 3.5 1.8 6.8 3.2 7.4 3.2 0.5 0 0.6 -1.9 0.2 -4.7z"/>
  <path d="M77.3 111 c0 -6.4 -1.9 -10.6 -6.3 -14.4 -3.5 -2.9 -2.5 -3.4 1.9 -1.1 5 2.5 7.7 12.5 5.2 19 -0.6 1.3 -0.8 0.2 -0.8 -3.5z"/>
 </g>
</svg>